<?xml version="1.0" standalone="no"?>
<!DOCTYPE svg PUBLIC "-//W3C//DTD SVG 20010904//EN"
 "http://www.w3.org/TR/2001/REC-SVG-20010904/DTD/svg10.dtd">
<svg version="1.0" xmlns="http://www.w3.org/2000/svg"
 width="256.000000pt" height="256.000000pt" viewBox="0 0 256.000000 256.000000"
 preserveAspectRatio="xMidYMid meet">
<metadata>
Created by potrace 1.11, written by Peter Selinger 2001-2013
</metadata>
<g transform="translate(0.000000,256.000000) scale(0.100000,-0.100000)"
fill="#000000" stroke="none">
<path d="M1071 2305 c-361 -81 -624 -322 -734 -670 -55 -173 -62 -405 -18
-575 46 -176 152 -360 286 -495 126 -128 271 -222 425 -275 154 -52 161 -53
718 -57 l523 -4 -3 633 -4 633 -26 96 c-79 291 -271 526 -523 640 -143 64
-225 82 -410 85 -122 3 -188 -1 -234 -11z m415 -79 c168 -36 304 -107 426
-224 91 -87 157 -181 203 -290 71 -170 69 -143 73 -805 l3 -598 -493 3 -493 4
-90 27 c-288 89 -515 279 -647 542 -139 275 -138 588 2 870 133 267 369 436
676 485 78 12 251 5 340 -14z"/>
<path d="M1278 1653 c-67 -42 -77 -139 -19 -197 28 -27 38 -31 87 -31 51 0 58
3 90 37 77 85 21 209 -93 208 -21 0 -50 -8 -65 -17z"/>
<path d="M950 1587 c-34 -17 -70 -74 -70 -112 0 -18 10 -47 23 -66 72 -107
227 -62 227 66 0 95 -96 155 -180 112z"/>
<path d="M1619 1583 c-109 -67 -59 -233 70 -233 33 0 49 7 79 34 34 32 37 38
37 91 0 53 -3 59 -37 91 -31 28 -46 34 -80 34 -24 0 -55 -8 -69 -17z"/>
<path d="M1220 1380 c-6 -11 -8 -25 -4 -31 6 -10 -82 -99 -98 -99 -5 0 -8 13
-8 30 0 19 -7 33 -19 40 -27 14 -144 13 -163 -2 -13 -10 -20 -56 -34 -213 -10
-110 -14 -212 -11 -227 l7 -28 115 0 115 0 11 27 c7 18 7 62 0 137 -9 92 -8
113 4 132 14 22 76 74 87 74 4 0 9 -48 13 -107 11 -158 8 -153 109 -153 67 0
85 3 90 16 3 9 11 69 18 135 6 65 15 119 20 119 4 0 28 -19 53 -43 50 -48 49
-44 35 -190 -6 -61 -6 -106 0 -122 9 -25 11 -25 124 -25 l114 0 9 28 c14 40
-20 431 -38 443 -16 10 -139 12 -163 3 -9 -3 -16 -18 -16 -33 0 -52 -14 -54
-63 -6 -30 28 -47 53 -47 68 0 41 -17 47 -137 47 -102 0 -113 -2 -123 -20z"/>
</g>
</svg>
